<svg width="18" height="18" viewBox="0 0 18 18" fill="none" xmlns="http://www.w3.org/2000/svg">
<g clip-path="url(#clip0_5_30)">
<g clip-path="url(#clip1_5_30)">
<g clip-path="url(#clip2_5_30)">
<path d="M0.335705 17.6445C-0.0989945 17.2026 -0.108895 16.4736 0.288905 16.0083L6.59791 9.68852C6.05071 8.83712 5.67721 7.87052 5.57371 6.85532C4.95721 0.814523 12.6081 -2.45248 16.5321 2.21132C20.7063 7.17122 15.3945 14.4522 9.36901 11.9637C8.99191 11.808 8.64991 11.5893 8.29351 11.4183L1.97191 17.7273C1.48771 18.1161 0.774905 18.09 0.335705 17.6445ZM6.81481 4.39112C8.06671 2.71082 10.1133 1.79642 12.2121 2.16812C15.426 2.73602 17.3142 6.44402 14.9193 9.03872C13.0662 11.0466 9.37171 10.8117 8.38351 8.08922C7.23061 4.91222 11.8314 2.85842 13.3938 5.56112C14.5323 7.52852 11.9187 9.02162 10.7874 7.60052C10.5624 7.31792 10.3104 6.70682 10.8207 6.57182C11.4291 6.41072 11.3202 7.06142 11.7531 7.20182C12.2805 7.37282 12.8592 6.94262 12.7557 6.37562C12.5379 5.18132 10.8639 4.97252 9.97291 5.58272C8.37901 6.67352 9.21961 8.72102 10.8027 9.28712C13.9734 10.4211 16.731 6.35042 13.8717 3.91232C11.0124 1.47422 6.00031 4.36412 6.90121 8.18732C7.30981 9.92252 9.51571 11.3832 11.2329 11.5164C16.4259 11.9196 19.1457 5.59622 15.255 2.20952C12.4569 -0.225877 8.0451 0.936923 6.81301 4.39112H6.81481ZM7.15681 10.4238L1.05031 16.5222C0.746105 16.8093 1.02691 17.2791 1.38871 17.0019L7.52671 10.8657C7.56181 10.8351 7.56631 10.818 7.54471 10.7766C7.52311 10.7352 7.19011 10.4184 7.15771 10.4238H7.15681Z" fill="black"/>
</g>
</g>
</g>
<defs>
<clipPath id="clip0_5_30">
<rect width="18" height="18" fill="white"/>
</clipPath>
<clipPath id="clip1_5_30">
<rect width="18" height="18" fill="white"/>
</clipPath>
<clipPath id="clip2_5_30">
<rect width="18.0216" height="18" fill="white"/>
</clipPath>
</defs>
</svg>
