<?xml version="1.0" encoding="iso-8859-1"?>
<!-- Uploaded to: SVG Repo, www.svgrepo.com, Generator: SVG Repo Mixer Tools -->
<svg fill="#000000" height="800px" width="800px" version="1.1" id="Layer_1" xmlns="http://www.w3.org/2000/svg" xmlns:xlink="http://www.w3.org/1999/xlink" 
	 viewBox="0 0 512 512" xml:space="preserve">
<g>
	<g>
		<path d="M406.579,113.162c-8.989-31.032-27.696-58.976-53.157-79.208C325.466,11.742,291.778,0,256,0
			c-35.778,0-69.466,11.742-97.421,33.955c-25.463,20.232-44.17,48.176-53.159,79.21c-18.143,6.183-31.232,23.371-31.232,43.569
			c0,20.199,13.089,37.389,31.231,43.572c8.989,31.033,27.697,58.976,53.159,79.209c17.902,14.224,38.158,24.147,59.805,29.449
			l0.002,165.566c-0.001,10.019,3.918,19.435,11.037,26.514C236.524,508.11,245.964,512,256,512
			c20.742,0,37.616-16.808,37.616-37.468V308.965c21.647-5.303,41.904-15.225,59.805-29.449
			c25.462-20.232,44.169-48.175,53.157-79.209c18.144-6.183,31.234-23.373,31.234-43.573
			C437.812,136.535,424.722,119.346,406.579,113.162z M272.718,474.532c0,9.137-7.5,16.57-16.718,16.57
			c-4.476,0-8.682-1.73-11.841-4.873c-3.145-3.127-4.877-7.28-4.875-11.696l-0.002-161.932c5.512,0.577,11.089,0.868,16.718,0.868
			c5.63,0,11.207-0.292,16.718-0.868V474.532z M256,292.571c-57.968,0-108.686-36.286-127.842-89.804H383.84
			C364.687,256.285,313.969,292.571,256,292.571z M391.754,181.87H120.246c-13.873,0-25.16-11.276-25.16-25.136
			c0-13.858,11.287-25.134,25.16-25.134h169.738c5.77,0,10.449-4.678,10.449-10.449s-4.679-10.449-10.449-10.449H128.158
			C147.314,57.184,198.032,20.898,256,20.898s108.687,36.286,127.841,89.805h-26.493c-5.77,0-10.449,4.678-10.449,10.449
			c0,5.771,4.679,10.449,10.449,10.449h34.407c13.873,0,25.16,11.274,25.16,25.134C416.914,170.594,405.627,181.87,391.754,181.87z"
			/>
	</g>
</g>
<g>
	<g>
		<path d="M323.774,110.703h-0.392c-5.77,0-10.449,4.678-10.449,10.449c0,5.771,4.679,10.449,10.449,10.449h0.392
			c5.771,0,10.449-4.678,10.449-10.449C334.223,115.381,329.544,110.703,323.774,110.703z"/>
	</g>
</g>
</svg>