<svg width="18" height="18" viewBox="0 0 18 18" fill="none" xmlns="http://www.w3.org/2000/svg">
<path d="M8.37047 0C10.295 0.121512 12.0707 0.717372 13.6597 1.79928C13.8302 1.91539 14.105 2.18992 14.2528 2.26463C14.4006 2.33933 14.6736 2.37534 14.8659 2.46445C15.0799 2.56436 15.2731 2.72727 15.478 2.84158L17.1422 1.23492C17.6692 0.882088 18.2605 1.49325 17.8778 2L16.2734 3.60666C16.4512 3.91989 16.6661 4.18992 16.774 4.54095C17.0869 5.56166 16.5736 7.93609 16.2426 8.9901C14.8232 13.5068 11.3388 16.6184 6.47591 16.874C4.82258 16.9613 3.77327 16.9748 2.22878 17.6859C2.02835 17.7786 1.76534 18 1.5504 18C1.21665 18 0.971785 17.7111 1.00262 17.3852C1.53861 16.4059 1.91136 15.36 2.05919 14.2484C2.17346 13.3879 2.10907 12.5194 2.21064 11.6562C2.49542 9.21692 3.70888 6.9577 5.5708 5.35914L4.11065 4.91089C3.25814 4.59586 1.82067 3.84788 1.19579 3.19892C0.621712 2.60216 1.53589 2.07201 1.98301 1.76238C3.47943 0.729973 5.38397 0.0972097 7.20145 0H8.37047ZM12.5496 2.32043C9.46604 0.517552 5.23342 0.606661 2.38477 2.81188C3.66807 3.71017 5.15633 4.28173 6.72259 4.46445C7.93696 3.68767 9.25926 3.08551 10.6586 2.71017L12.5505 2.32133L12.5496 2.32043ZM13.5418 3.34023C9.30914 3.49955 4.87609 6.0117 3.6064 10.1953C3.27446 11.2898 3.16926 12.4275 3.19919 13.5698L3.90115 12.1404C5.78483 8.88029 8.65615 6.25743 11.8449 4.27453L13.5418 3.34023ZM3.48306 15.5383C4.52511 15.0333 5.61614 14.6427 6.62374 14.0684C9.8941 12.2034 13.3459 8.32223 14.8949 4.91089C14.9928 4.69397 15.4272 3.94149 15.0092 3.90279C14.8323 3.88659 13.7386 4.43204 13.5064 4.55266C10.2079 6.25833 6.62011 9.41764 4.82258 12.6679C4.50697 13.2394 4.28569 13.8146 4.01996 14.4023C3.84764 14.7849 3.6463 15.153 3.48215 15.5383H3.48306ZM5.4665 15.8191C6.39156 15.8398 7.31935 15.784 8.22264 15.5842C11.3325 14.8974 13.6343 12.5941 14.8341 9.73627C15.3855 8.42304 15.732 6.982 15.7737 5.55446L14.7398 7.39244C12.6221 10.6904 9.8016 13.6688 6.25915 15.4626L5.46741 15.8191H5.4665Z" fill="black"/>
</svg>
