<svg width="22" height="14" viewBox="0 0 22 14" fill="none" xmlns="http://www.w3.org/2000/svg">
<path d="M19.5604 1.8379C18.0984 0.669883 16.1397 0 14.1866 0C12.046 0 10.2988 0.844507 8.84542 2.58178C8.14464 3.41941 7.56731 4.40417 7.06144 5.40856C4.25502 5.50872 2.57048 6.64662 1.64033 7.60813C0.507246 8.7795 0 10.1998 0 11.0878C0 11.7121 0.0657422 12.4149 0.553566 12.8945C1.04474 13.3774 1.77147 13.4425 2.41755 13.4425C2.41845 13.4425 2.41931 13.4425 2.42026 13.4425C2.51823 13.4424 2.61491 13.438 2.71047 13.4294C3.50402 13.3618 4.50162 13.044 5.55079 12.7097C6.75937 12.3247 8.00912 11.9265 8.89251 11.9265C10.3175 11.9265 11.2048 12.1333 12.1443 12.3521C13.0357 12.5598 13.9575 12.7745 15.2916 12.7745C16.2541 12.7745 18.1028 12.6079 19.6704 11.4924C21.1944 10.4079 22 8.7181 22 6.60567C22 4.78796 21.1336 3.09474 19.5604 1.8379ZM2.45334 12.1531C2.44316 12.1533 2.43345 12.155 2.42301 12.1535C2.42215 12.1534 2.42146 12.1534 2.4206 12.1535C2.41957 12.1535 2.41854 12.1535 2.41755 12.1535C1.77371 12.1535 1.54 12.0566 1.45729 11.9753C1.34565 11.8655 1.28906 11.567 1.28906 11.0878C1.28906 10.5803 1.62937 9.47349 2.56687 8.50433C3.25398 7.7941 4.45595 6.96674 6.42542 6.74657C6.29264 7.03893 6.164 7.32815 6.03818 7.61097C4.96207 10.0301 4.03154 12.1219 2.45334 12.1531ZM15.2916 11.4855C14.1056 11.4855 13.295 11.2967 12.4367 11.0967C11.4677 10.871 10.4656 10.6375 8.89251 10.6375C7.93255 10.6375 6.7662 10.9742 5.60712 11.3395C6.19373 10.4331 6.69204 9.31283 7.216 8.13489C7.47983 7.54183 7.74525 6.94508 8.02493 6.36457C8.0392 6.33952 8.05183 6.31348 8.0627 6.2865C9.36379 3.60559 10.984 1.28902 14.1866 1.28902C17.3374 1.28898 20.7109 3.42538 20.7109 6.60567C20.7109 11.2502 16.1966 11.4855 15.2916 11.4855Z" fill="black"/>
</svg>
