<svg width="18" height="18" viewBox="0 0 18 18" fill="none" xmlns="http://www.w3.org/2000/svg">
<g clip-path="url(#clip0_6_32)">
<g clip-path="url(#clip1_6_32)">
<path d="M8.71145 2.85307C7.05543 4.87108 6.92518 7.28491 5.791 9.54988C5.0611 11.0071 3.65543 12.801 2.31235 13.5174C1.89792 13.7381 1.50802 13.7187 1.03946 14.0342C-1.10457 15.4779 0.484635 16.936 2.07468 17.6075C5.39518 19.0098 8.61757 16.4108 10.6906 13.6037C12.9471 13.0573 15.7195 12.571 17.0169 10.1005C20.0609 4.3078 12.9352 -2.29176 8.71145 2.85307ZM2.52717 16.7203C2.10936 16.5588 1.03185 16.0361 0.903292 15.5439C0.829709 15.2614 1.52493 14.8605 1.7313 14.759C2.58553 14.3361 4.95031 14.0088 5.93732 13.9318C7.05289 13.8456 8.20399 13.9716 9.30349 13.728L9.35593 13.8379C7.56712 15.85 5.11608 17.7209 2.52633 16.7203H2.52717ZM16.3022 9.50252C15.0767 11.9197 11.3858 12.5346 9.13264 12.7782C7.5409 12.9499 5.92548 12.8069 4.35488 13.1791C4.28468 13.1165 4.37434 13.0818 4.41747 13.0319C5.14737 12.187 5.70558 11.5899 6.27732 10.5682C7.68046 8.05879 7.89444 4.50486 10.1349 2.75919C13.6169 0.0459536 18.5266 5.11635 16.3031 9.50168L16.3022 9.50252Z" fill="black"/>
<path d="M14.8289 7.89896C15.2147 7.89896 15.5275 7.54188 15.5275 7.1014C15.5275 6.66091 15.2147 6.30383 14.8289 6.30383C14.443 6.30383 14.1302 6.66091 14.1302 7.1014C14.1302 7.54188 14.443 7.89896 14.8289 7.89896Z" fill="black"/>
<path d="M13.0384 8.69651C13.2556 8.69651 13.4317 8.49581 13.4317 8.24825C13.4317 8.00068 13.2556 7.79999 13.0384 7.79999C12.8212 7.79999 12.6451 8.00068 12.6451 8.24825C12.6451 8.49581 12.8212 8.69651 13.0384 8.69651Z" fill="black"/>
</g>
</g>
<defs>
<clipPath id="clip0_6_32">
<rect width="18" height="18" fill="white"/>
</clipPath>
<clipPath id="clip1_6_32">
<rect width="17.7519" height="17" fill="white" transform="translate(0 1)"/>
</clipPath>
</defs>
</svg>
