<svg width="13" height="23" viewBox="0 0 13 23" fill="none" xmlns="http://www.w3.org/2000/svg">
<path d="M12.5217 2.78961L12.5219 2.7898L12.5265 2.78389C12.8824 2.32092 12.8426 1.66354 12.4083 1.24444C11.9324 0.785187 11.1622 0.785187 10.6863 1.24444L0.925112 10.6642L0.924924 10.664L0.920023 10.6695L0.811637 10.7906L0.811431 10.7905L0.806891 10.7964C0.450926 11.2593 0.49082 11.9167 0.925112 12.3358L10.6863 21.7556L10.6861 21.7558L10.6917 21.7604L10.8173 21.865L10.8171 21.8652L10.8231 21.8695C11.2997 22.2108 11.9754 22.1733 12.4083 21.7556L12.4085 21.7558L12.4134 21.7503L12.5217 21.6291L12.5219 21.6293L12.5265 21.6234C12.8824 21.1604 12.8426 20.503 12.4083 20.0839L3.51281 11.5L12.4083 2.91606L12.4084 2.91625L12.4134 2.91077L12.5217 2.78961Z" fill="black" stroke="black" stroke-width="0.2"/>
</svg>
